# This file uses centimeters as units for non-parametric coordinates.

mtllib leaf.mtl
g default
v 0.206887 -0.866025 -0.412760
v -0.172247 -0.866025 -0.298341
v -0.482597 -0.866025 -0.024923
v -0.322997 -0.866025 0.281188
v -0.073104 -0.866025 -0.045905
v 0.427003 -0.866025 -0.151825
v 0.476649 -0.500000 -0.660153
v -0.298340 -0.500000 -0.516741
v -0.828137 -0.500000 0.095810
v -0.506010 -0.500000 0.598175
v 0.052990 -0.500000 0.172496
v 0.793029 -0.500000 -0.151825
v 0.575388 0.000000 -0.750705
v -0.344494 0.000000 -0.596682
v -0.954614 0.000000 0.140002
v -0.572997 0.000000 0.714200
v 0.099143 0.000000 0.252437
v 0.927003 0.000000 -0.151825
v 0.476649 0.500000 -0.660153
v -0.298340 0.500000 -0.516741
v -0.828137 0.500000 0.095810
v -0.506010 0.500000 0.598175
v 0.052990 0.500000 0.172496
v 0.793029 0.500000 -0.151825
v 0.206887 0.866025 -0.412760
v -0.172247 0.866025 -0.298341
v -0.482597 0.866025 -0.024923
v -0.322997 0.866025 0.281188
v -0.073787 0.854747 -0.038456
v 0.427003 0.866025 -0.151825
v -0.112520 -1.000000 -0.144374
v -0.112972 0.988722 -0.136909
vt 0.000000 0.166667
vt 0.166667 0.166667
vt 0.333333 0.166667
vt 0.500000 0.166667
vt 0.666667 0.166667
vt 0.833333 0.166667
vt 1.000000 0.166667
vt 0.000000 0.333333
vt 0.166667 0.333333
vt 0.333333 0.333333
vt 0.500000 0.333333
vt 0.666667 0.333333
vt 0.833333 0.333333
vt 1.000000 0.333333
vt 0.000000 0.500000
vt 0.166667 0.500000
vt 0.333333 0.500000
vt 0.500000 0.500000
vt 0.666667 0.500000
vt 0.833333 0.500000
vt 1.000000 0.500000
vt 0.000000 0.666667
vt 0.166667 0.666667
vt 0.333333 0.666667
vt 0.500000 0.666667
vt 0.666667 0.666667
vt 0.833333 0.666667
vt 1.000000 0.666667
vt 0.000000 0.833333
vt 0.166667 0.833333
vt 0.333333 0.833333
vt 0.500000 0.833333
vt 0.666667 0.833333
vt 0.833333 0.833333
vt 1.000000 0.833333
vt 0.083333 0.000000
vt 0.250000 0.000000
vt 0.416667 0.000000
vt 0.583333 0.000000
vt 0.750000 0.000000
vt 0.916667 0.000000
vt 0.083333 1.000000
vt 0.250000 1.000000
vt 0.416667 1.000000
vt 0.583333 1.000000
vt 0.750000 1.000000
vt 0.916667 1.000000
vn -0.188747 -0.500545 -0.844884
vn -0.188747 -0.500545 -0.844884
vn -0.188747 -0.500545 -0.844884
vn -0.188747 -0.500545 -0.844884
vn -0.633300 -0.488135 -0.600546
vn -0.633300 -0.488135 -0.600546
vn -0.633300 -0.488135 -0.600546
vn -0.633300 -0.488135 -0.600546
vn -0.630221 -0.679565 0.375516
vn -0.630221 -0.679565 0.375516
vn -0.630221 -0.679565 0.375516
vn -0.630221 -0.679565 0.375516
vn 0.613589 -0.434498 0.659334
vn 0.613589 -0.434498 0.659334
vn 0.613589 -0.434498 0.659334
vn 0.613589 -0.434498 0.659334
vn 0.292903 -0.448785 0.844275
vn 0.292903 -0.448785 0.844275
vn 0.292903 -0.448785 0.844275
vn 0.292903 -0.448785 0.844275
vn 0.607948 -0.671290 -0.423992
vn 0.607948 -0.671290 -0.423992
vn 0.607948 -0.671290 -0.423992
vn 0.607948 -0.671290 -0.423992
vn -0.170710 -0.156870 -0.972754
vn -0.170710 -0.156870 -0.972754
vn -0.170710 -0.156870 -0.972754
vn -0.170710 -0.156870 -0.972754
vn -0.754866 -0.153112 -0.637757
vn -0.754866 -0.153112 -0.637757
vn -0.754866 -0.153112 -0.637757
vn -0.754866 -0.153112 -0.637757
vn -0.812113 -0.242169 0.530874
vn -0.812113 -0.242169 0.530874
vn -0.812113 -0.242169 0.530874
vn -0.812113 -0.242169 0.530874
vn 0.578548 -0.145232 0.802614
vn 0.578548 -0.145232 0.802614
vn 0.578548 -0.145232 0.802614
vn 0.578548 -0.145232 0.802614
vn 0.416846 -0.146796 0.897046
vn 0.416846 -0.146796 0.897045
vn 0.416846 -0.146796 0.897046
vn 0.416846 -0.146796 0.897045
vn 0.831443 -0.238911 -0.501621
vn 0.831443 -0.238911 -0.501621
vn 0.831443 -0.238911 -0.501621
vn 0.831443 -0.238911 -0.501621
vn -0.170710 0.156870 -0.972754
vn -0.170710 0.156870 -0.972754
vn -0.170710 0.156870 -0.972754
vn -0.170710 0.156870 -0.972754
vn -0.754866 0.153112 -0.637757
vn -0.754866 0.153112 -0.637757
vn -0.754866 0.153112 -0.637757
vn -0.754866 0.153112 -0.637757
vn -0.812113 0.242169 0.530874
vn -0.812113 0.242169 0.530874
vn -0.812113 0.242169 0.530874
vn -0.812113 0.242169 0.530874
vn 0.578548 0.145232 0.802614
vn 0.578548 0.145232 0.802614
vn 0.578548 0.145232 0.802614
vn 0.578548 0.145232 0.802614
vn 0.416846 0.146796 0.897045
vn 0.416846 0.146796 0.897046
vn 0.416846 0.146796 0.897045
vn 0.416846 0.146796 0.897045
vn 0.831443 0.238911 -0.501621
vn 0.831443 0.238911 -0.501621
vn 0.831443 0.238911 -0.501621
vn 0.831443 0.238911 -0.501621
vn -0.188747 0.500545 -0.844884
vn -0.188747 0.500545 -0.844884
vn -0.188747 0.500545 -0.844884
vn -0.188747 0.500545 -0.844884
vn -0.633300 0.488135 -0.600546
vn -0.633300 0.488135 -0.600546
vn -0.633300 0.488135 -0.600546
vn -0.633300 0.488135 -0.600546
vn -0.630221 0.679565 0.375516
vn -0.630221 0.679565 0.375516
vn -0.630221 0.679565 0.375516
vn -0.630221 0.679565 0.375516
vn 0.613768 0.434788 0.658975
vn 0.613768 0.434788 0.658975
vn 0.613768 0.434788 0.658975
vn 0.613768 0.434788 0.658975
vn 0.293779 0.447993 0.844391
vn 0.293779 0.447993 0.844391
vn 0.293779 0.447993 0.844391
vn 0.293779 0.447993 0.844391
vn 0.607948 0.671290 -0.423992
vn 0.607948 0.671290 -0.423992
vn 0.607948 0.671290 -0.423992
vn 0.607948 0.671290 -0.423992
vn -0.182349 -0.775673 -0.604219
vn -0.182349 -0.775673 -0.604219
vn -0.182349 -0.775673 -0.604219
vn -0.432265 -0.756575 -0.490654
vn -0.432264 -0.756575 -0.490654
vn -0.432265 -0.756575 -0.490654
vn -0.292524 -0.944017 0.152516
vn -0.292524 -0.944017 0.152516
vn -0.292524 -0.944017 0.152516
vn 0.657107 -0.562306 0.502019
vn 0.657107 -0.562306 0.502019
vn 0.657107 -0.562306 0.502019
vn 0.163377 -0.615030 0.771392
vn 0.163377 -0.615030 0.771392
vn 0.163377 -0.615030 0.771392
vn 0.233706 -0.952111 -0.197147
vn 0.233706 -0.952111 -0.197147
vn 0.233706 -0.952111 -0.197147
vn -0.167998 0.813570 -0.556669
vn -0.167998 0.813570 -0.556669
vn -0.167998 0.813570 -0.556669
vn -0.401770 0.794108 -0.456040
vn -0.401770 0.794108 -0.456040
vn -0.401770 0.794109 -0.456040
vn -0.272766 0.951511 0.142215
vn -0.272766 0.951511 0.142215
vn -0.272766 0.951511 0.142215
vn 0.663156 0.559398 0.497291
vn 0.663156 0.559398 0.497291
vn 0.663156 0.559398 0.497291
vn 0.160982 0.614581 0.772253
vn 0.160981 0.614581 0.772253
vn 0.160981 0.614581 0.772253
vn 0.213236 0.960299 -0.179879
vn 0.213236 0.960299 -0.179879
vn 0.213236 0.960299 -0.179879
s off
g pSphere1
usemtl initialShadingGroup
f 1/1/1 2/2/2 8/9/3 7/8/4
f 2/2/5 3/3/6 9/10/7 8/9/8
f 3/3/9 4/4/10 10/11/11 9/10/12
f 4/4/13 5/5/14 11/12/15 10/11/16
f 5/5/17 6/6/18 12/13/19 11/12/20
f 6/6/21 1/7/22 7/14/23 12/13/24
f 7/8/25 8/9/26 14/16/27 13/15/28
f 8/9/29 9/10/30 15/17/31 14/16/32
f 9/10/33 10/11/34 16/18/35 15/17/36
f 10/11/37 11/12/38 17/19/39 16/18/40
f 11/12/41 12/13/42 18/20/43 17/19/44
f 12/13/45 7/14/46 13/21/47 18/20/48
f 13/15/49 14/16/50 20/23/51 19/22/52
f 14/16/53 15/17/54 21/24/55 20/23/56
f 15/17/57 16/18/58 22/25/59 21/24/60
f 16/18/61 17/19/62 23/26/63 22/25/64
f 17/19/65 18/20/66 24/27/67 23/26/68
f 18/20/69 13/21/70 19/28/71 24/27/72
f 19/22/73 20/23/74 26/30/75 25/29/76
f 20/23/77 21/24/78 27/31/79 26/30/80
f 21/24/81 22/25/82 28/32/83 27/31/84
f 22/25/85 23/26/86 29/33/87 28/32/88
f 23/26/89 24/27/90 30/34/91 29/33/92
f 24/27/93 19/28/94 25/35/95 30/34/96
f 2/2/97 1/1/98 31/36/99
f 3/3/100 2/2/101 31/37/102
f 4/4/103 3/3/104 31/38/105
f 5/5/106 4/4/107 31/39/108
f 6/6/109 5/5/110 31/40/111
f 1/7/112 6/6/113 31/41/114
f 25/29/115 26/30/116 32/42/117
f 26/30/118 27/31/119 32/43/120
f 27/31/121 28/32/122 32/44/123
f 28/32/124 29/33/125 32/45/126
f 29/33/127 30/34/128 32/46/129
f 30/34/130 25/35/131 32/47/132
