# This file uses centimeters as units for non-parametric coordinates.

mtllib tallerBoi.mtl
g default
v -1.078753 0.000000 1.078753
v 0.000000 0.000000 1.078753
v 1.078753 0.000000 1.078753
v -1.078753 8.219479 1.078753
v 0.000000 8.219479 1.078753
v 1.078753 8.219479 1.078753
v -1.078753 16.438958 1.078753
v 0.000000 16.438958 1.078753
v 1.078753 16.438958 1.078753
v -1.078753 16.438958 0.000000
v 0.000000 16.438958 0.000000
v 1.078753 16.438958 0.000000
v -1.078753 16.438958 -1.078753
v 0.000000 16.438958 -1.078753
v 1.078753 16.438958 -1.078753
v -1.078753 8.219479 -1.078753
v 0.000000 8.219479 -1.078753
v 1.078753 8.219479 -1.078753
v -1.078753 0.000000 -1.078753
v 0.000000 0.000000 -1.078753
v 1.078753 0.000000 -1.078753
v -1.078753 0.000000 0.000000
v 0.000000 0.000000 0.000000
v 1.078753 0.000000 0.000000
v 1.078753 8.219479 0.000000
v -1.078753 8.219479 0.000000
vt 0.375000 0.000000
vt 0.500000 0.000000
vt 0.375000 0.125000
vt 0.500000 0.125000
vt 0.625000 0.000000
vt 0.625000 0.125000
vt 0.375000 0.250000
vt 0.500000 0.250000
vt 0.625000 0.250000
vt 0.375000 0.375000
vt 0.500000 0.375000
vt 0.625000 0.375000
vt 0.375000 0.500000
vt 0.500000 0.500000
vt 0.625000 0.500000
vt 0.375000 0.625000
vt 0.500000 0.625000
vt 0.625000 0.625000
vt 0.375000 0.750000
vt 0.500000 0.750000
vt 0.625000 0.750000
vt 0.375000 0.875000
vt 0.500000 0.875000
vt 0.625000 0.875000
vt 0.375000 1.000000
vt 0.500000 1.000000
vt 0.625000 1.000000
vt 0.750000 0.000000
vt 0.875000 0.000000
vt 0.750000 0.125000
vt 0.875000 0.125000
vt 0.750000 0.250000
vt 0.875000 0.250000
vt 0.125000 0.000000
vt 0.250000 0.000000
vt 0.125000 0.125000
vt 0.250000 0.125000
vt 0.125000 0.250000
vt 0.250000 0.250000
vn 0.000000 0.000000 1.000000
vn 0.000000 0.000000 1.000000
vn 0.000000 0.000000 1.000000
vn 0.000000 0.000000 1.000000
vn 0.000000 0.000000 1.000000
vn 0.000000 0.000000 1.000000
vn 0.000000 0.000000 1.000000
vn 0.000000 0.000000 1.000000
vn 0.000000 0.000000 1.000000
vn 0.000000 0.000000 1.000000
vn 0.000000 0.000000 1.000000
vn 0.000000 0.000000 1.000000
vn 0.000000 0.000000 1.000000
vn 0.000000 0.000000 1.000000
vn 0.000000 0.000000 1.000000
vn 0.000000 0.000000 1.000000
vn 0.000000 0.000000 1.000000
vn 0.000000 0.000000 1.000000
vn 0.000000 0.000000 1.000000
vn 0.000000 0.000000 1.000000
vn 0.000000 0.000000 1.000000
vn 0.000000 0.000000 1.000000
vn 0.000000 0.000000 1.000000
vn 0.000000 0.000000 1.000000
vn 0.000000 1.000000 0.000000
vn 0.000000 1.000000 0.000000
vn 0.000000 1.000000 0.000000
vn 0.000000 1.000000 0.000000
vn 0.000000 1.000000 0.000000
vn 0.000000 1.000000 0.000000
vn 0.000000 1.000000 0.000000
vn 0.000000 1.000000 0.000000
vn 0.000000 1.000000 0.000000
vn 0.000000 1.000000 0.000000
vn 0.000000 1.000000 0.000000
vn 0.000000 1.000000 0.000000
vn 0.000000 1.000000 0.000000
vn 0.000000 1.000000 0.000000
vn 0.000000 1.000000 0.000000
vn 0.000000 1.000000 0.000000
vn 0.000000 1.000000 0.000000
vn 0.000000 1.000000 0.000000
vn 0.000000 1.000000 0.000000
vn 0.000000 1.000000 0.000000
vn 0.000000 1.000000 0.000000
vn 0.000000 1.000000 0.000000
vn 0.000000 1.000000 0.000000
vn 0.000000 1.000000 0.000000
vn 0.000000 0.000000 -1.000000
vn 0.000000 0.000000 -1.000000
vn 0.000000 0.000000 -1.000000
vn 0.000000 0.000000 -1.000000
vn 0.000000 0.000000 -1.000000
vn 0.000000 0.000000 -1.000000
vn 0.000000 0.000000 -1.000000
vn 0.000000 0.000000 -1.000000
vn 0.000000 0.000000 -1.000000
vn 0.000000 0.000000 -1.000000
vn 0.000000 0.000000 -1.000000
vn 0.000000 0.000000 -1.000000
vn 0.000000 0.000000 -1.000000
vn 0.000000 0.000000 -1.000000
vn 0.000000 0.000000 -1.000000
vn 0.000000 0.000000 -1.000000
vn 0.000000 0.000000 -1.000000
vn 0.000000 0.000000 -1.000000
vn 0.000000 0.000000 -1.000000
vn 0.000000 0.000000 -1.000000
vn 0.000000 0.000000 -1.000000
vn 0.000000 0.000000 -1.000000
vn 0.000000 0.000000 -1.000000
vn 0.000000 0.000000 -1.000000
vn 0.000000 -1.000000 0.000000
vn 0.000000 -1.000000 0.000000
vn 0.000000 -1.000000 0.000000
vn 0.000000 -1.000000 0.000000
vn 0.000000 -1.000000 0.000000
vn 0.000000 -1.000000 0.000000
vn 0.000000 -1.000000 0.000000
vn 0.000000 -1.000000 0.000000
vn 0.000000 -1.000000 0.000000
vn 0.000000 -1.000000 0.000000
vn 0.000000 -1.000000 0.000000
vn 0.000000 -1.000000 0.000000
vn 0.000000 -1.000000 0.000000
vn 0.000000 -1.000000 0.000000
vn 0.000000 -1.000000 0.000000
vn 0.000000 -1.000000 0.000000
vn 0.000000 -1.000000 0.000000
vn 0.000000 -1.000000 0.000000
vn 0.000000 -1.000000 0.000000
vn 0.000000 -1.000000 0.000000
vn 0.000000 -1.000000 0.000000
vn 0.000000 -1.000000 0.000000
vn 0.000000 -1.000000 0.000000
vn 0.000000 -1.000000 0.000000
vn 1.000000 0.000000 0.000000
vn 1.000000 0.000000 0.000000
vn 1.000000 0.000000 0.000000
vn 1.000000 0.000000 0.000000
vn 1.000000 0.000000 0.000000
vn 1.000000 0.000000 0.000000
vn 1.000000 0.000000 0.000000
vn 1.000000 0.000000 0.000000
vn 1.000000 0.000000 0.000000
vn 1.000000 0.000000 0.000000
vn 1.000000 0.000000 0.000000
vn 1.000000 0.000000 0.000000
vn 1.000000 0.000000 0.000000
vn 1.000000 0.000000 0.000000
vn 1.000000 0.000000 0.000000
vn 1.000000 0.000000 0.000000
vn 1.000000 0.000000 0.000000
vn 1.000000 0.000000 0.000000
vn 1.000000 0.000000 0.000000
vn 1.000000 0.000000 0.000000
vn 1.000000 0.000000 0.000000
vn 1.000000 0.000000 0.000000
vn 1.000000 0.000000 0.000000
vn 1.000000 0.000000 0.000000
vn -1.000000 0.000000 0.000000
vn -1.000000 0.000000 0.000000
vn -1.000000 0.000000 0.000000
vn -1.000000 0.000000 0.000000
vn -1.000000 0.000000 0.000000
vn -1.000000 0.000000 0.000000
vn -1.000000 0.000000 0.000000
vn -1.000000 0.000000 0.000000
vn -1.000000 0.000000 0.000000
vn -1.000000 0.000000 0.000000
vn -1.000000 0.000000 0.000000
vn -1.000000 0.000000 0.000000
vn -1.000000 0.000000 0.000000
vn -1.000000 0.000000 0.000000
vn -1.000000 0.000000 0.000000
vn -1.000000 0.000000 0.000000
vn -1.000000 0.000000 0.000000
vn -1.000000 0.000000 0.000000
vn -1.000000 0.000000 0.000000
vn -1.000000 0.000000 0.000000
vn -1.000000 0.000000 0.000000
vn -1.000000 0.000000 0.000000
vn -1.000000 0.000000 0.000000
vn -1.000000 0.000000 0.000000
s off
g tallBoi:pCube1
usemtl tallBoi:initialShadingGroup
f 1/1/1 2/2/2 4/3/3
f 4/3/4 2/2/5 5/4/6
f 2/2/7 3/5/8 5/4/9
f 5/4/10 3/5/11 6/6/12
f 4/3/13 5/4/14 7/7/15
f 7/7/16 5/4/17 8/8/18
f 5/4/19 6/6/20 8/8/21
f 8/8/22 6/6/23 9/9/24
f 7/7/25 8/8/26 10/10/27
f 10/10/28 8/8/29 11/11/30
f 8/8/31 9/9/32 11/11/33
f 11/11/34 9/9/35 12/12/36
f 10/10/37 11/11/38 13/13/39
f 13/13/40 11/11/41 14/14/42
f 11/11/43 12/12/44 14/14/45
f 14/14/46 12/12/47 15/15/48
f 13/13/49 14/14/50 16/16/51
f 16/16/52 14/14/53 17/17/54
f 14/14/55 15/15/56 17/17/57
f 17/17/58 15/15/59 18/18/60
f 16/16/61 17/17/62 19/19/63
f 19/19/64 17/17/65 20/20/66
f 17/17/67 18/18/68 20/20/69
f 20/20/70 18/18/71 21/21/72
f 19/19/73 20/20/74 22/22/75
f 22/22/76 20/20/77 23/23/78
f 20/20/79 21/21/80 23/23/81
f 23/23/82 21/21/83 24/24/84
f 22/22/85 23/23/86 1/25/87
f 1/25/88 23/23/89 2/26/90
f 23/23/91 24/24/92 2/26/93
f 2/26/94 24/24/95 3/27/96
f 24/28/97 21/29/98 25/30/99
f 25/30/100 21/29/101 18/31/102
f 3/5/103 24/28/104 6/6/105
f 6/6/106 24/28/107 25/30/108
f 25/30/109 18/31/110 12/32/111
f 12/32/112 18/31/113 15/33/114
f 6/6/115 25/30/116 9/9/117
f 9/9/118 25/30/119 12/32/120
f 19/34/121 22/35/122 16/36/123
f 16/36/124 22/35/125 26/37/126
f 22/35/127 1/1/128 26/37/129
f 26/37/130 1/1/131 4/3/132
f 16/36/133 26/37/134 13/38/135
f 13/38/136 26/37/137 10/39/138
f 26/37/139 4/3/140 10/39/141
f 10/39/142 4/3/143 7/7/144
